<svg width="16" height="17" viewBox="0 0 16 17" fill="none" xmlns="http://www.w3.org/2000/svg">
<g id="copy-hover" clip-path="url(#clip0_186_572)">
<path id="copy-hover_2" fill-rule="evenodd" clip-rule="evenodd" d="M5.99997 5.60011C5.99997 4.48273 6.2265 3.83064 6.61187 3.44528C6.99723 3.05991 7.64932 2.83337 8.7667 2.83337H11.5668C12.6841 2.83337 13.3362 3.05991 13.7216 3.44528C14.107 3.83064 14.3335 4.48273 14.3335 5.60011V8.40017C14.3335 9.51755 14.107 10.1696 13.7216 10.555C13.3362 10.9404 12.6841 11.1669 11.5668 11.1669H11.3335V9.6002C11.3335 8.3842 11.0934 7.40292 10.4287 6.73826C9.8822 6.19173 9.12158 5.93223 8.19241 5.85726C7.99155 5.84105 7.78282 5.83346 7.56668 5.83346H5.99997V5.60011ZM4.99997 5.83347V5.60011C4.99997 4.3841 5.2401 3.40283 5.90476 2.73817C6.56942 2.07351 7.55069 1.83337 8.7667 1.83337H11.5668C12.7828 1.83337 13.764 2.07351 14.4287 2.73817C15.0934 3.40283 15.3335 4.3841 15.3335 5.60011V8.40017C15.3335 9.61618 15.0934 10.5975 14.4287 11.2621C13.764 11.9268 12.7828 12.1669 11.5668 12.1669H11.3335V12.4003C11.3335 13.6163 11.0934 14.5975 10.4287 15.2622C9.76408 15.9269 8.7828 16.167 7.56679 16.167H4.76674C3.55073 16.167 2.56945 15.9269 1.9048 15.2622C1.24014 14.5975 1 13.6163 1 12.4003V9.6002C1 8.3842 1.24014 7.40292 1.9048 6.73826C2.56945 6.07361 3.55073 5.83347 4.76674 5.83347H4.99997ZM7.96427 6.84395C7.83879 6.837 7.70642 6.83347 7.56679 6.83347H4.76674C3.64936 6.83347 2.99727 7.06001 2.6119 7.44537C2.22654 7.83074 2 8.48283 2 9.6002V12.4003C2 13.5176 2.22654 14.1697 2.6119 14.5551C2.99727 14.9405 3.64936 15.167 4.76674 15.167H7.56679C8.68417 15.167 9.33626 14.9405 9.72163 14.5551C10.107 14.1697 10.3335 13.5176 10.3335 12.4003V11.6779C10.3335 11.6742 10.3334 11.6706 10.3334 11.6669V9.60019C10.3334 8.48282 10.1069 7.83073 9.72151 7.44536C9.42342 7.14727 8.96575 6.94422 8.25658 6.86753C8.16354 6.85747 8.06617 6.84959 7.96427 6.84395Z" fill="#006ACC"/>
</g>
<defs>
<clipPath id="clip0_186_572">
<rect width="16" height="16" fill="white" transform="translate(0 0.833374)"/>
</clipPath>
</defs>
</svg>
