<svg width="17" height="17" fill="none" xmlns="http://www.w3.org/2000/svg"><g clip-path="url(#copy__a)"><path fill-rule="evenodd" clip-rule="evenodd" d="M6.833 5.6c0-1.117.227-1.77.612-2.155.386-.385 1.038-.612 2.155-.612h2.8c1.117 0 1.77.227 2.155.612.385.386.612 1.038.612 2.155v2.8c0 1.118-.227 1.77-.612 2.155-.386.385-1.037.612-2.155.612h-.233V9.6c0-1.216-.24-2.197-.905-2.862-.546-.546-1.307-.806-2.236-.88a7.79 7.79 0 0 0-.626-.025H6.833V5.6Zm-1 .233V5.6c0-1.216.24-2.197.905-2.862.665-.664 1.646-.905 2.862-.905h2.8c1.216 0 2.197.24 2.862.905s.905 1.646.905 2.862v2.8c0 1.216-.24 2.197-.905 2.862s-1.646.905-2.862.905h-.233v.233c0 1.216-.24 2.197-.905 2.862s-1.646.905-2.862.905H5.6c-1.216 0-2.197-.24-2.862-.905s-.905-1.646-.905-2.862V9.6c0-1.216.24-2.197.905-2.862.665-.664 1.646-.905 2.862-.905h.233Zm2.965 1.011a7.195 7.195 0 0 0-.398-.01H5.6c-1.117 0-1.77.226-2.155.611-.385.386-.612 1.038-.612 2.155v2.8c0 1.118.227 1.77.612 2.155.386.386 1.038.612 2.155.612h2.8c1.117 0 1.77-.226 2.155-.612.385-.385.612-1.037.612-2.155V9.6c0-1.117-.227-1.77-.612-2.155-.298-.298-.756-.5-1.465-.577a5.598 5.598 0 0 0-.292-.024Z" fill="#000"/></g><defs><clipPath id="copy__a"><path fill="#fff" transform="translate(.833 .833)" d="M0 0h16v16H0z"/></clipPath></defs></svg>