<svg width="164" height="12" viewBox="0 0 164 12" fill="none" xmlns="http://www.w3.org/2000/svg">
<path d="M0.205078 11H3.25391L3.7666 9.03809H6.71973L7.23242 11H10.2812L7.06152 1.13574H3.4248L0.205078 11ZM5.21582 3.4873H5.27051L6.18652 6.99414H4.2998L5.21582 3.4873Z" fill="white"/>
<path d="M11.1699 11H17.9375V8.70312H14.0684V1.13574H11.1699V11Z" fill="white"/>
<path d="M19.0312 11H25.7988V8.70312H21.9297V1.13574H19.0312V11Z" fill="white"/>
<path d="M34.207 11.1777C36.9209 11.1777 38.8008 9.40723 38.8008 7.09668V7.02148H36.0254L36.0186 7.09668C35.9229 8.13574 35.2119 8.8125 34.2139 8.8125C33.0176 8.8125 32.2725 7.81445 32.2725 6.05762V6.05078C32.2725 4.32129 33.0176 3.32324 34.207 3.32324C35.2803 3.32324 35.9229 4.05469 36.0049 5.03223L36.0117 5.11426H38.7871V5.05273C38.7871 2.73535 36.9482 0.958008 34.207 0.958008C31.1992 0.958008 29.3193 2.80371 29.3193 6.05762V6.06445C29.3193 9.31836 31.1787 11.1777 34.207 11.1777Z" fill="white"/>
<path d="M39.8945 11H42.793V7.75977H43.7432L45.3018 11H48.542L46.6689 7.3291C47.626 6.86426 48.2549 5.75684 48.2549 4.52637V4.5127C48.2549 2.3252 46.874 1.13574 44.3379 1.13574H39.8945V11ZM42.793 5.71582V3.27539H44.0029C44.7686 3.27539 45.3018 3.77441 45.3018 4.49219V4.50586C45.3018 5.23047 44.7822 5.71582 44.0029 5.71582H42.793Z" fill="white"/>
<path d="M51.5771 11H54.4756V7.87598L57.8457 1.13574H54.7832L53.0537 5.13477H52.999L51.2695 1.13574H48.207L51.5771 7.87598V11Z" fill="white"/>
<path d="M58.7344 11H61.6328V8.30664H63.1436C65.4541 8.30664 66.9102 6.93262 66.9102 4.74512V4.73145C66.9102 2.54395 65.4541 1.13574 63.1436 1.13574H58.7344V11ZM62.4531 3.31641C63.4102 3.31641 63.9844 3.78809 63.9844 4.73145V4.74512C63.9844 5.68848 63.4102 6.16699 62.4531 6.16699H61.6328V3.31641H62.4531Z" fill="white"/>
<path d="M70.1572 11H73.0557V3.43262H75.6533V1.13574H67.5596V3.43262H70.1572V11Z" fill="white"/>
<path d="M80.8896 11.1777C83.959 11.1777 85.8662 9.21582 85.8662 6.07129V6.05762C85.8662 2.91992 83.9521 0.958008 80.8896 0.958008C77.8477 0.958008 75.9268 2.91309 75.9268 6.05762V6.07129C75.9268 9.22266 77.834 11.1777 80.8896 11.1777ZM80.8896 8.8125C79.6729 8.8125 78.8799 7.77344 78.8799 6.07129V6.05762C78.8799 4.35547 79.6797 3.32324 80.8896 3.32324C82.1201 3.32324 82.9131 4.3623 82.9131 6.05762V6.07129C82.9131 7.75293 82.1406 8.8125 80.8896 8.8125Z" fill="white"/>
<path d="M91.6426 11.1777C94.3564 11.1777 96.2363 9.40723 96.2363 7.09668V7.02148H93.4609L93.4541 7.09668C93.3584 8.13574 92.6475 8.8125 91.6494 8.8125C90.4531 8.8125 89.708 7.81445 89.708 6.05762V6.05078C89.708 4.32129 90.4531 3.32324 91.6426 3.32324C92.7158 3.32324 93.3584 4.05469 93.4404 5.03223L93.4473 5.11426H96.2227V5.05273C96.2227 2.73535 94.3838 0.958008 91.6426 0.958008C88.6348 0.958008 86.7549 2.80371 86.7549 6.05762V6.06445C86.7549 9.31836 88.6143 11.1777 91.6426 11.1777Z" fill="white"/>
<path d="M101.671 11.1777C104.31 11.1777 106.025 9.72168 106.025 7.48633V1.13574H103.127V7.19922C103.127 8.23828 102.621 8.8125 101.678 8.8125C100.734 8.8125 100.229 8.23828 100.229 7.19922V1.13574H97.3301V7.48633C97.3301 9.73535 99.0664 11.1777 101.671 11.1777Z" fill="white"/>
<path d="M107.393 11H110.291V7.75977H111.241L112.8 11H116.04L114.167 7.3291C115.124 6.86426 115.753 5.75684 115.753 4.52637V4.5127C115.753 2.3252 114.372 1.13574 111.836 1.13574H107.393V11ZM110.291 5.71582V3.27539H111.501C112.267 3.27539 112.8 3.77441 112.8 4.49219V4.50586C112.8 5.23047 112.28 5.71582 111.501 5.71582H110.291Z" fill="white"/>
<path d="M116.936 11H119.834V7.75977H120.784L122.343 11H125.583L123.71 7.3291C124.667 6.86426 125.296 5.75684 125.296 4.52637V4.5127C125.296 2.3252 123.915 1.13574 121.379 1.13574H116.936V11ZM119.834 5.71582V3.27539H121.044C121.81 3.27539 122.343 3.77441 122.343 4.49219V4.50586C122.343 5.23047 121.823 5.71582 121.044 5.71582H119.834Z" fill="white"/>
<path d="M126.479 11H133.438V8.70312H129.377V7.1377H133.185V5.00488H129.377V3.43262H133.438V1.13574H126.479V11Z" fill="white"/>
<path d="M134.791 11H137.689V5.87305H137.737L141.251 11H143.637V1.13574H140.738V6.18066H140.69L137.204 1.13574H134.791V11Z" fill="white"/>
<path d="M149.652 11.1777C152.366 11.1777 154.246 9.40723 154.246 7.09668V7.02148H151.471L151.464 7.09668C151.368 8.13574 150.657 8.8125 149.659 8.8125C148.463 8.8125 147.718 7.81445 147.718 6.05762V6.05078C147.718 4.32129 148.463 3.32324 149.652 3.32324C150.726 3.32324 151.368 4.05469 151.45 5.03223L151.457 5.11426H154.232V5.05273C154.232 2.73535 152.394 0.958008 149.652 0.958008C146.645 0.958008 144.765 2.80371 144.765 6.05762V6.06445C144.765 9.31836 146.624 11.1777 149.652 11.1777Z" fill="white"/>
<path d="M157.685 11H160.583V7.87598L163.953 1.13574H160.891L159.161 5.13477H159.106L157.377 1.13574H154.314L157.685 7.87598V11Z" fill="white"/>
</svg>
