<svg width="232" height="40" viewBox="0 0 232 40" fill="none" xmlns="http://www.w3.org/2000/svg">
<rect x="0.5" y="0.5" width="39" height="39" rx="19.5" fill="white"/>
<path d="M22.0328 18.0443V15.6493H27.6377V12H12.3755V15.6493H17.981V18.0424C13.4254 18.2469 10 19.1285 10 20.1847C10 21.2409 13.427 22.1225 17.981 22.3283V30H22.0341V22.3276C26.5815 22.1225 30 21.2415 30 20.1863C30 19.1311 26.5815 18.2501 22.0341 18.045L22.0328 18.0443ZM22.0341 21.6778V21.6759C21.9198 21.683 21.3323 21.7174 20.0241 21.7174C18.9782 21.7174 18.2423 21.6884 17.983 21.6752V21.6785C13.9582 21.5043 10.954 20.8194 10.954 19.9999C10.954 19.1804 13.9585 18.4964 17.983 18.3219V20.9961C18.2466 21.0138 19.0006 21.0573 20.0412 21.0573C21.2911 21.0573 21.9195 21.0064 22.0348 20.9961V18.3219C26.0517 18.4967 29.049 19.1823 29.049 19.9989C29.049 20.8155 26.0504 21.5014 22.0348 21.6762" fill="#575757"/>
<rect x="0.5" y="0.5" width="39" height="39" rx="19.5" stroke="#575757"/>
<rect x="32.5" y="0.5" width="39" height="39" rx="19.5" fill="white"/>
<path d="M59.7994 22.2148C59.6712 21.2987 59.2099 20.5862 58.4152 20.1281C58.0564 19.9245 57.6206 19.7718 57.2105 19.5937C57.2618 19.5683 57.2874 19.5174 57.313 19.5174C59.338 18.474 59.1586 15.3694 57.6975 14.3006C57.108 13.868 56.4415 13.5881 55.7238 13.4354C55.2111 13.3336 54.7241 13.2573 54.1858 13.1555C54.1858 12.2648 54.2115 10.9925 54.2115 10H52.289C52.289 10.967 52.2634 12.2139 52.2634 13.0792H50.751C50.751 12.1885 50.751 10.967 50.7767 10H48.8798C48.8798 11.0179 48.8542 12.2394 48.8542 13.13C47.5469 13.13 46.2909 13.1046 45.0093 13.1046C45.0093 13.7917 45.0093 14.4533 44.9836 15.115H45.7526C45.9833 15.115 46.2396 15.115 46.4703 15.1404C47.1368 15.1913 47.47 15.5476 47.47 16.2092L47.3931 24.327C47.3931 24.9122 47.1368 25.1667 46.5472 25.1667H45.2656C45.1374 25.9301 45.0093 26.6681 44.8555 27.4316C46.1371 27.457 47.4188 27.457 48.7004 27.4824C48.7004 28.4495 48.7004 29.6964 48.6748 30.7143H50.5716C50.5716 29.6964 50.5972 28.5004 50.5972 27.5333C51.1355 27.5588 51.6225 27.5588 52.1096 27.5842C52.1096 28.5512 52.0839 29.7218 52.0839 30.7143H53.9808C53.9808 29.6964 54.0064 28.5003 54.0064 27.5588C54.0833 27.5588 54.1346 27.5333 54.1602 27.5333C55.0573 27.3807 56.0058 27.3043 56.8773 27.1007C58.0307 26.8208 58.9535 26.1592 59.4149 25.014C59.8507 24.0979 59.9276 23.1818 59.7994 22.2148ZM50.751 15.3185C51.9301 15.3185 53.0836 15.2167 54.1858 15.7002C54.9035 16.0056 55.2624 16.5909 55.2111 17.3034C55.1599 18.0414 54.7241 18.5758 53.9808 18.8303C52.9298 19.1611 51.8532 19.1611 50.7254 19.1102C50.7254 17.8378 50.751 16.6164 50.751 15.3185V15.3185ZM54.9035 24.7596C53.8526 25.2176 52.7248 25.2176 51.6225 25.2431C51.3149 25.2431 51.0073 25.2176 50.6485 25.2176C50.6741 23.818 50.6741 22.4438 50.6998 21.0442C52.1352 21.0442 53.5706 20.9424 54.9292 21.5277C55.6213 21.8331 56.0314 22.3675 56.0314 23.1564C56.0314 23.9452 55.6213 24.4542 54.9035 24.7596V24.7596Z" fill="#575757"/>
<rect x="32.5" y="0.5" width="39" height="39" rx="19.5" stroke="#575757"/>
<rect x="64.5" y="0.5" width="39" height="39" rx="19.5" fill="white"/>
<path d="M84 25.074V29.9999L90.4286 21.4285L84 25.074Z" fill="#575757"/>
<path d="M90.4286 20L84 10V17.2667L90.4286 20Z" fill="#575757"/>
<path d="M84 17.8572V23.5715L90.4286 20.3674L84 17.8572Z" fill="#575757"/>
<path d="M76.8555 20L83.284 10V17.2667L76.8555 20Z" fill="#575757"/>
<path d="M83.284 17.8572V23.5715L76.8555 20.3674L83.284 17.8572Z" fill="#575757"/>
<path d="M83.284 25.0743V30.0001L76.8555 21.4287L83.284 25.0743Z" fill="#575757"/>
<rect x="64.5" y="0.5" width="39" height="39" rx="19.5" stroke="#575757"/>
<rect x="96.5" y="0.5" width="39" height="39" rx="19.5" fill="white"/>
<path d="M115.003 25.2136L116.113 21.0162L118.754 20.0442L119.42 17.57L119.398 17.5258L116.801 18.4757L118.665 11.4286H113.338L110.875 20.6186L108.833 21.3697L108.145 23.9102L110.209 23.1591L108.744 28.5714H122.949L123.859 25.2136H115.003Z" fill="#575757"/>
<rect x="96.5" y="0.5" width="39" height="39" rx="19.5" stroke="#575757"/>
<rect x="128.5" y="0.5" width="39" height="39" rx="19.5" fill="white"/>
<path fill-rule="evenodd" clip-rule="evenodd" d="M138 11L146.357 32L158 17.832L153.878 13.9183L138 11ZM140.963 12.6704L152.407 14.7743L147.965 18.4711L140.963 12.6704ZM140.169 13.4518L147.467 19.4973L146.326 28.9243L140.169 13.4518ZM153.622 15.204L156.051 17.5102L149.408 18.7117L153.622 15.204ZM148.523 19.9974L155.879 18.6673L147.442 28.9342L148.523 19.9974Z" fill="#575757"/>
<rect x="128.5" y="0.5" width="39" height="39" rx="19.5" stroke="#575757"/>
<rect x="160.5" y="0.5" width="39" height="39" rx="19.5" fill="white"/>
<path d="M187.852 13.7396C187.852 15.8357 186.319 17.857 184.105 18.1315C183.715 18.1814 183.302 18.1814 182.913 18.2563C181.623 18.5308 181.088 20.1029 181.939 21.126C182.28 21.5502 182.767 21.6999 183.302 21.7498C183.837 21.7997 184.421 21.8496 184.932 22.0243C186.586 22.5983 187.535 23.821 187.803 25.5678C188.168 27.9634 186.611 30.0845 184.445 30.6085C182.085 31.1575 179.628 29.5105 179.19 27.065C178.995 25.992 179.214 25.0188 179.677 24.0705C179.871 23.6713 180.042 23.272 180.017 22.8228C179.993 22.0992 179.531 21.4753 178.801 21.2258C178.192 21.0012 177.463 21.2258 177.049 21.7748C176.781 22.1241 176.538 22.5234 176.27 22.8728C175.127 24.2702 173.667 24.7443 171.964 24.345C170.261 23.9458 169.142 22.8228 168.704 21.0761C168.095 18.5807 169.628 16.0853 172.061 15.6111C173.862 15.2618 175.346 15.8607 176.441 17.3829C176.684 17.7073 176.879 18.0566 177.146 18.3561C178.046 19.2794 179.652 18.8302 179.969 17.5576C180.09 17.0585 179.993 16.5843 179.774 16.1601C179.36 15.3616 179.068 14.5132 179.093 13.5649C179.166 11.4189 180.82 9.59723 182.864 9.32274C185.175 9.02329 187.316 10.5704 187.754 12.966C187.803 13.1906 187.827 13.4651 187.852 13.7396V13.7396Z" fill="#575757"/>
<rect x="160.5" y="0.5" width="39" height="39" rx="19.5" stroke="#575757"/>
<rect x="192.5" y="0.5" width="39" height="39" rx="19.5" fill="white"/>
<path d="M212.003 13.0851L217.774 16.5301V23.4478L212.019 26.915L206.247 23.4754V16.5577L212.003 13.0851ZM212.003 8L209.885 9.27677L204.118 12.7494L202 14.0262V16.5687V23.4809V26.0234L204.118 27.2892L209.89 30.7343L212.008 32L214.126 30.7232L219.882 27.2507L222 25.9794V23.4369V16.5191V13.9766L219.882 12.7109L214.11 9.26577L211.992 8H212.003Z" fill="#575757"/>
<rect x="192.5" y="0.5" width="39" height="39" rx="19.5" stroke="#575757"/>
</svg>
