<svg width="36" height="36" viewBox="0 0 36 36" fill="none" xmlns="http://www.w3.org/2000/svg">
<path d="M0 18C0 10.5005 0 6.7508 1.90983 4.12215C2.52663 3.2732 3.2732 2.52663 4.12215 1.90983C6.7508 0 10.5005 0 18 0C25.4995 0 29.2492 0 31.8779 1.90983C32.7268 2.52663 33.4734 3.2732 34.0902 4.12215C36 6.7508 36 10.5005 36 18C36 25.4995 36 29.2492 34.0902 31.8779C33.4734 32.7268 32.7268 33.4734 31.8779 34.0902C29.2492 36 25.4995 36 18 36C10.5005 36 6.7508 36 4.12215 34.0902C3.2732 33.4734 2.52663 32.7268 1.90983 31.8779C0 29.2492 0 25.4995 0 18Z" fill="black"/>
<path d="M15.9053 28V19.502H13V16.125H15.9053V13.4643C15.9053 10.5734 17.7083 9 20.3409 9C21.6023 9 22.6856 9.09277 23 9.13359V12.1543H21.1742C19.7424 12.1543 19.4659 12.8223 19.4659 13.7982V16.125H22.697L22.2538 19.502H19.4659V28" fill="white"/>
</svg>
