<svg width="36" height="36" viewBox="0 0 36 36" fill="none" xmlns="http://www.w3.org/2000/svg">
<path fill-rule="evenodd" clip-rule="evenodd" d="M18 34C14.2057 34 11.5207 33.9973 9.44995 33.7729C7.41667 33.5526 6.21429 33.1381 5.29772 32.4721C4.61856 31.9787 4.0213 31.3814 3.52786 30.7023C2.86194 29.7857 2.44739 28.5833 2.22709 26.5501C2.00275 24.4793 2 21.7943 2 18C2 14.2057 2.00275 11.5207 2.22709 9.44995C2.44739 7.41667 2.86194 6.21429 3.52786 5.29772C4.0213 4.61856 4.61856 4.0213 5.29772 3.52786C6.21429 2.86194 7.41667 2.44739 9.44995 2.22709C11.5207 2.00275 14.2057 2 18 2C21.7943 2 24.4793 2.00275 26.5501 2.22709C28.5833 2.44739 29.7857 2.86194 30.7023 3.52786C31.3814 4.0213 31.9787 4.61856 32.4721 5.29772C33.1381 6.21429 33.5526 7.41667 33.7729 9.44995C33.9973 11.5207 34 14.2057 34 18C34 21.7943 33.9973 24.4793 33.7729 26.5501C33.5526 28.5833 33.1381 29.7857 32.4721 30.7023C31.9787 31.3814 31.3814 31.9787 30.7023 32.4721C29.7857 33.1381 28.5833 33.5526 26.5501 33.7729C24.4793 33.9973 21.7943 34 18 34ZM0 18C0 10.5005 0 6.7508 1.90983 4.12215C2.52663 3.2732 3.2732 2.52663 4.12215 1.90983C6.7508 0 10.5005 0 18 0C25.4995 0 29.2492 0 31.8779 1.90983C32.7268 2.52663 33.4734 3.2732 34.0902 4.12215C36 6.7508 36 10.5005 36 18C36 25.4995 36 29.2492 34.0902 31.8779C33.4734 32.7268 32.7268 33.4734 31.8779 34.0902C29.2492 36 25.4995 36 18 36C10.5005 36 6.7508 36 4.12215 34.0902C3.2732 33.4734 2.52663 32.7268 1.90983 31.8779C0 29.2492 0 25.4995 0 18ZM15.9053 19.502V28H19.4659V19.502H22.2538L22.697 16.125H19.4659V13.7982C19.4659 12.8223 19.7424 12.1543 21.1742 12.1543H23V9.13359C22.6856 9.09277 21.6023 9 20.3409 9C17.7083 9 15.9053 10.5734 15.9053 13.4643V16.125H13V19.502H15.9053Z" fill="black"/>
</svg>
