<svg width="60" height="17" viewBox="0 0 60 17" fill="none" xmlns="http://www.w3.org/2000/svg">
<path fill-rule="evenodd" clip-rule="evenodd" d="M54.9011 13.1626L56.8064 1.04121C56.8356 0.853197 56.9985 0.714729 57.1879 0.71405H59.3328C59.5696 0.71405 59.7516 0.926503 59.7142 1.16136L57.8354 13.0641C57.7865 13.3784 57.5164 13.6092 57.1981 13.6092H55.2826C55.0457 13.6092 54.8638 13.3974 54.9011 13.1626ZM2.55766 0.714722H7.19972C8.75341 0.714722 9.9236 1.12469 10.5834 1.89984C11.1841 2.60575 11.3829 3.61372 11.1752 4.89658C10.7144 7.82883 8.94958 9.30854 5.89174 9.30854H4.42222C4.10524 9.30854 3.83441 9.53932 3.78554 9.85358L3.27918 13.0641C3.22963 13.3784 2.95948 13.6092 2.64182 13.6092H0.425659C0.187413 13.6092 0.00550514 13.3974 0.0428371 13.1626L1.9203 1.25909C1.96985 0.945501 2.24 0.714722 2.55766 0.714722ZM4.97813 6.72788C6.20873 6.72788 7.48141 6.72788 7.73527 5.0622C7.82826 4.4771 7.75359 4.05356 7.50992 3.76848C7.1013 3.29063 6.31054 3.29063 5.47227 3.29063H5.15121C4.96116 3.29063 4.79826 3.42909 4.76907 3.61711L4.27764 6.72788H4.97813ZM18.8527 5.00862H21.0757C21.3132 5.00862 21.4945 5.22107 21.4565 5.45525L20.255 13.0635C20.2048 13.3778 19.936 13.6086 19.6177 13.6086H17.6153C17.3784 13.6086 17.1965 13.3968 17.2339 13.1606L17.333 12.5429C17.333 12.5429 16.2354 13.8156 14.2561 13.8156C13.1029 13.8156 12.1336 13.483 11.4562 12.6848C10.7177 11.8166 10.4157 10.5718 10.6281 9.2699C11.0368 6.66005 13.1348 4.79956 15.5913 4.79956C16.6624 4.79956 17.7355 5.03306 18.2167 5.7315L18.3722 5.95685L18.4706 5.3351C18.4998 5.14709 18.6633 5.00862 18.8527 5.00862ZM15.4691 11.4576C16.7547 11.4576 17.7626 10.605 17.9771 9.33506C18.0742 8.7201 17.9398 8.16216 17.6011 7.76236C17.2631 7.36664 16.7499 7.15691 16.1187 7.15691C14.8528 7.15691 13.8278 8.03726 13.6276 9.29637C13.5231 9.91405 13.648 10.4686 13.9765 10.8582C14.3077 11.2505 14.8236 11.4576 15.4691 11.4576ZM32.9146 5.00861H30.6808C30.4677 5.00861 30.2674 5.11449 30.1466 5.29165L27.0657 9.82986L25.7598 5.46881C25.6776 5.19594 25.4258 5.00861 25.1407 5.00861H22.9456C22.6789 5.00861 22.4936 5.26925 22.5784 5.52039L25.0389 12.7411L22.7257 16.0066C22.5438 16.2639 22.7271 16.6175 23.0413 16.6175H25.2724C25.4842 16.6175 25.6824 16.5143 25.8025 16.3406L33.2323 5.6161C33.4101 5.35953 33.2275 5.00861 32.9146 5.00861ZM35.6676 0.714722H40.3103C41.864 0.714722 43.0335 1.12469 43.6926 1.89984C44.2933 2.60575 44.4935 3.61372 44.2852 4.89658C43.8236 7.82883 42.0595 9.30854 39.001 9.30854H37.5321C37.2152 9.30854 36.9443 9.53932 36.8955 9.85358L36.3626 13.2277C36.328 13.4476 36.1386 13.6092 35.9174 13.6092H33.5349C33.298 13.6092 33.1161 13.3974 33.1534 13.1626L35.0309 1.25909C35.0804 0.945501 35.3506 0.714722 35.6676 0.714722ZM38.0887 6.72788C39.32 6.72788 40.5927 6.72788 40.8459 5.0622C40.9389 4.4771 40.8649 4.05356 40.6212 3.76848C40.2126 3.29063 39.4211 3.29063 38.5835 3.29063H38.2625C38.0718 3.29063 37.9102 3.42909 37.881 3.61711L37.3889 6.72788H38.0887ZM54.1857 5.00862H51.9641C51.7734 5.00862 51.6111 5.14709 51.5826 5.3351L51.4842 5.95685L51.3281 5.7315C50.8468 5.03306 49.7744 4.79956 48.7033 4.79956C46.2469 4.79956 44.1495 6.66005 43.7409 9.2699C43.5291 10.5718 43.8298 11.8166 44.5683 12.6848C45.247 13.483 46.215 13.8156 47.3682 13.8156C49.3475 13.8156 50.445 12.5429 50.445 12.5429L50.3459 13.1606C50.3086 13.3968 50.4905 13.6086 50.7287 13.6086H52.7304C53.0474 13.6086 53.3175 13.3778 53.3671 13.0635L54.5692 5.45525C54.6058 5.22107 54.4239 5.00862 54.1857 5.00862ZM51.0871 9.33506C50.874 10.605 49.8647 11.4576 48.5791 11.4576C47.935 11.4576 47.4177 11.2505 47.0865 10.8582C46.758 10.4686 46.6344 9.91405 46.7376 9.29637C46.9392 8.03726 47.9628 7.15691 49.2287 7.15691C49.8599 7.15691 50.3731 7.36664 50.7111 7.76236C51.0512 8.16216 51.1856 8.7201 51.0871 9.33506Z" fill="white"/>
</svg>
