<svg width="36" height="36" viewBox="0 0 36 36" fill="none" xmlns="http://www.w3.org/2000/svg">
<path d="M0 18C0 10.5005 0 6.7508 1.90983 4.12215C2.52663 3.2732 3.2732 2.52663 4.12215 1.90983C6.7508 0 10.5005 0 18 0C25.4995 0 29.2492 0 31.8779 1.90983C32.7268 2.52663 33.4734 3.2732 34.0902 4.12215C36 6.7508 36 10.5005 36 18C36 25.4995 36 29.2492 34.0902 31.8779C33.4734 32.7268 32.7268 33.4734 31.8779 34.0902C29.2492 36 25.4995 36 18 36C10.5005 36 6.7508 36 4.12215 34.0902C3.2732 33.4734 2.52663 32.7268 1.90983 31.8779C0 29.2492 0 25.4995 0 18Z" fill="black"/>
<path d="M26.943 10.5476L23.9249 24.9738C23.6972 25.992 23.1034 26.2454 22.2596 25.7657L17.6609 22.3311L15.442 24.4941C15.1964 24.743 14.9911 24.9512 14.5178 24.9512L14.8482 20.2043L23.3713 12.3984C23.7418 12.0636 23.2909 11.878 22.7953 12.2129L12.2587 18.9373L7.72255 17.4983C6.73585 17.186 6.718 16.4982 7.92793 16.0185L25.6706 9.09053C26.4921 8.77829 27.2109 9.27606 26.943 10.5476Z" fill="white"/>
</svg>
