<svg width="36" height="36" viewBox="0 0 36 36" fill="none" xmlns="http://www.w3.org/2000/svg">
<path d="M0 18C0 10.5005 0 6.7508 1.90983 4.12215C2.52663 3.2732 3.2732 2.52663 4.12215 1.90983C6.7508 0 10.5005 0 18 0C25.4995 0 29.2492 0 31.8779 1.90983C32.7268 2.52663 33.4734 3.2732 34.0902 4.12215C36 6.7508 36 10.5005 36 18C36 25.4995 36 29.2492 34.0902 31.8779C33.4734 32.7268 32.7268 33.4734 31.8779 34.0902C29.2492 36 25.4995 36 18 36C10.5005 36 6.7508 36 4.12215 34.0902C3.2732 33.4734 2.52663 32.7268 1.90983 31.8779C0 29.2492 0 25.4995 0 18Z" fill="black"/>
<path d="M25.1498 13.7383C25.1612 13.9023 25.1612 14.0664 25.1612 14.2305C25.1612 19.2344 21.4493 25 14.665 25C12.5749 25 10.6333 24.3789 9 23.3008C9.29697 23.3359 9.58247 23.3477 9.89086 23.3477C11.6155 23.3477 13.2031 22.75 14.4708 21.7305C12.849 21.6953 11.4898 20.6055 11.0216 19.1055C11.25 19.1406 11.4784 19.164 11.7183 19.164C12.0495 19.164 12.3807 19.1172 12.6891 19.0352C10.9987 18.6836 9.73094 17.1601 9.73094 15.3203V15.2734C10.222 15.5547 10.7932 15.7305 11.3984 15.7539C10.4048 15.0742 9.75379 13.914 9.75379 12.6015C9.75379 11.8984 9.9365 11.2539 10.2563 10.6914C12.0723 12.9883 14.802 14.4882 17.8629 14.6523C17.8058 14.3711 17.7716 14.0781 17.7716 13.7852C17.7716 11.6992 19.4162 10 21.4607 10C22.5228 10 23.4822 10.457 24.1561 11.1953C24.9898 11.0313 25.7893 10.7148 26.4975 10.2813C26.2233 11.1602 25.6409 11.8985 24.8756 12.3672C25.618 12.2852 26.3376 12.0742 27 11.7813C26.4975 12.5312 25.8693 13.1992 25.1498 13.7383Z" fill="white"/>
</svg>
