<svg width="56" height="56" viewBox="0 0 56 56" fill="none" xmlns="http://www.w3.org/2000/svg">
<g id="Close">
<path id="Union" fill-rule="evenodd" clip-rule="evenodd" d="M3.91669 28C3.91669 14.7524 14.7525 3.91663 28 3.91663C41.2476 3.91663 52.0834 14.7524 52.0834 28C52.0834 41.2475 41.2476 52.0833 28 52.0833C14.7525 52.0833 3.91669 41.2475 3.91669 28ZM28 5.41663C15.5809 5.41663 5.41669 15.5808 5.41669 28C5.41669 40.4191 15.5809 50.5833 28 50.5833C40.4191 50.5833 50.5834 40.4191 50.5834 28C50.5834 15.5808 40.4191 5.41663 28 5.41663ZM35.1337 20.8664C35.4266 21.1593 35.4266 21.6342 35.1337 21.9271L29.0607 28.0001L35.1337 34.0731C35.4266 34.366 35.4266 34.8408 35.1337 35.1337C34.8408 35.4266 34.3659 35.4266 34.073 35.1337L28 29.0607L21.927 35.1337C21.6341 35.4266 21.1592 35.4266 20.8663 35.1337C20.5734 34.8408 20.5734 34.366 20.8663 34.0731L26.9393 28.0001L20.8663 21.9271C20.5734 21.6342 20.5734 21.1593 20.8663 20.8664C21.1592 20.5735 21.6341 20.5735 21.927 20.8664L28 26.9394L34.073 20.8664C34.3659 20.5735 34.8408 20.5735 35.1337 20.8664Z" fill="white"/>
</g>
</svg>
