<?xml version="1.0" encoding="utf-8"?><svg viewBox="0 0 232 56" xmlns="http://www.w3.org/2000/svg" xmlns:xlink="http://www.w3.org/1999/xlink"><style>:root>svg{display:none}:root>svg:target{display:block}</style><svg fill="none" viewBox="0 0 16 16" id="arrow" xmlns="http://www.w3.org/2000/svg"><path d="M6 14.667h4c3.333 0 4.667-1.334 4.667-4.667V6c0-3.333-1.334-4.667-4.667-4.667H6C2.667 1.333 1.333 2.667 1.333 6v4c0 3.333 1.334 4.667 4.667 4.667z" stroke="#000" stroke-linecap="round" stroke-linejoin="round"/><path d="M7.16 10.353L9.507 8 7.16 5.647" stroke="#000" stroke-linecap="round" stroke-linejoin="round"/></svg><svg fill="none" viewBox="0 0 16 16" id="arrow-hover" xmlns="http://www.w3.org/2000/svg"><path d="M6 14.667h4c3.333 0 4.667-1.334 4.667-4.667V6c0-3.333-1.334-4.667-4.667-4.667H6C2.667 1.333 1.333 2.667 1.333 6v4c0 3.333 1.334 4.667 4.667 4.667z" stroke="#006ACC" stroke-linecap="round" stroke-linejoin="round"/><path d="M7.16 10.353L9.507 8 7.16 5.647" stroke="#006ACC" stroke-linecap="round" stroke-linejoin="round"/></svg><svg fill="none" viewBox="0 0 56 56" id="close" xmlns="http://www.w3.org/2000/svg"><path fill-rule="evenodd" clip-rule="evenodd" d="M3.917 28C3.917 14.752 14.752 3.917 28 3.917c13.248 0 24.083 10.835 24.083 24.083 0 13.248-10.835 24.083-24.083 24.083C14.752 52.083 3.917 41.248 3.917 28zM28 5.417C15.58 5.417 5.417 15.58 5.417 28 5.417 40.42 15.58 50.583 28 50.583c12.42 0 22.583-10.164 22.583-22.583C50.583 15.58 40.42 5.417 28 5.417zm7.134 15.45a.75.75 0 010 1.06L29.06 28l6.073 6.073a.75.75 0 11-1.061 1.06L28 29.062l-6.073 6.073a.75.75 0 01-1.06-1.06L26.938 28l-6.073-6.073a.75.75 0 011.061-1.06L28 26.938l6.073-6.073a.75.75 0 011.06 0z" fill="#fff"/></svg><svg fill="none" viewBox="0 0 17 17" id="copy" xmlns="http://www.w3.org/2000/svg"><g clip-path="url(#dcopy__a)"><path fill-rule="evenodd" clip-rule="evenodd" d="M6.833 5.6c0-1.117.227-1.77.612-2.155.386-.385 1.038-.612 2.155-.612h2.8c1.117 0 1.77.227 2.155.612.385.386.612 1.038.612 2.155v2.8c0 1.118-.227 1.77-.612 2.155-.386.385-1.037.612-2.155.612h-.233V9.6c0-1.216-.24-2.197-.905-2.862-.546-.546-1.307-.806-2.236-.88a7.79 7.79 0 00-.626-.025H6.833V5.6zm-1 .233V5.6c0-1.216.24-2.197.905-2.862.665-.664 1.646-.905 2.862-.905h2.8c1.216 0 2.197.24 2.862.905s.905 1.646.905 2.862v2.8c0 1.216-.24 2.197-.905 2.862s-1.646.905-2.862.905h-.233v.233c0 1.216-.24 2.197-.905 2.862s-1.646.905-2.862.905H5.6c-1.216 0-2.197-.24-2.862-.905s-.905-1.646-.905-2.862V9.6c0-1.216.24-2.197.905-2.862.665-.664 1.646-.905 2.862-.905h.233zm2.965 1.011a7.195 7.195 0 00-.398-.01H5.6c-1.117 0-1.77.226-2.155.611-.385.386-.612 1.038-.612 2.155v2.8c0 1.118.227 1.77.612 2.155.386.386 1.038.612 2.155.612h2.8c1.117 0 1.77-.226 2.155-.612.385-.385.612-1.037.612-2.155V9.6c0-1.117-.227-1.77-.612-2.155-.298-.298-.756-.5-1.465-.577a5.598 5.598 0 00-.292-.024z" fill="#000"/></g><defs><clipPath id="dcopy__a"><path fill="#fff" transform="translate(.833 .833)" d="M0 0h16v16H0z"/></clipPath></defs></svg><svg fill="none" viewBox="0 0 16 17" id="copy-hover" xmlns="http://www.w3.org/2000/svg"><g clip-path="url(#eclip0_186_572)"><path fill-rule="evenodd" clip-rule="evenodd" d="M6 5.6c0-1.117.226-1.77.612-2.155.385-.385 1.037-.612 2.155-.612h2.8c1.117 0 1.77.227 2.155.612.385.386.612 1.038.612 2.155v2.8c0 1.118-.227 1.77-.612 2.155-.386.385-1.038.612-2.155.612h-.233V9.6c0-1.216-.24-2.197-.905-2.862-.547-.546-1.307-.806-2.237-.88a7.79 7.79 0 00-.625-.025H6V5.6zm-1 .233V5.6c0-1.216.24-2.197.905-2.862.664-.664 1.646-.905 2.862-.905h2.8c1.216 0 2.197.24 2.862.905.664.665.905 1.646.905 2.862v2.8c0 1.216-.24 2.197-.905 2.862s-1.646.905-2.862.905h-.233v.233c0 1.216-.24 2.197-.905 2.862s-1.646.905-2.862.905h-2.8c-1.216 0-2.198-.24-2.862-.905C1.24 14.597 1 13.616 1 12.4V9.6c0-1.216.24-2.197.905-2.862.664-.664 1.646-.905 2.862-.905H5zm2.964 1.011a7.195 7.195 0 00-.397-.01h-2.8c-1.118 0-1.77.226-2.155.611C2.227 7.831 2 8.483 2 9.6v2.8c0 1.118.227 1.77.612 2.155.385.386 1.037.612 2.155.612h2.8c1.117 0 1.77-.226 2.155-.612.385-.385.612-1.037.612-2.155v-.722V9.6c0-1.117-.227-1.77-.612-2.155-.299-.298-.756-.5-1.465-.577a5.6 5.6 0 00-.293-.024z" fill="#006ACC"/></g><defs><clipPath id="eclip0_186_572"><path fill="#fff" transform="translate(0 .833)" d="M0 0h16v16H0z"/></clipPath></defs></svg><svg fill="none" viewBox="0 0 232 40" id="crypto" xmlns="http://www.w3.org/2000/svg"><rect x=".5" y=".5" width="39" height="39" rx="19.5" fill="#fff"/><path d="M22.033 18.044V15.65h5.605V12H12.375v3.65h5.606v2.392C13.425 18.247 10 19.128 10 20.185c0 1.056 3.427 1.938 7.981 2.143V30h4.053v-7.672C26.581 22.122 30 21.24 30 20.186s-3.419-1.936-7.966-2.141h-.001zm.001 3.634v-.002c-.114.007-.702.041-2.01.041-1.046 0-1.782-.029-2.041-.042v.003c-4.025-.174-7.029-.859-7.029-1.678 0-.82 3.005-1.504 7.029-1.678v2.674c.264.018 1.018.061 2.058.061 1.25 0 1.878-.05 1.994-.06v-2.675c4.017.175 7.014.86 7.014 1.677 0 .817-2.999 1.502-7.014 1.677" fill="#575757"/><rect x=".5" y=".5" width="39" height="39" rx="19.5" stroke="#575757"/><rect x="32.5" y=".5" width="39" height="39" rx="19.5" fill="#fff"/><path d="M59.8 22.215c-.129-.916-.59-1.629-1.385-2.087-.359-.204-.794-.356-1.204-.534.05-.026.076-.077.102-.077 2.025-1.043 1.846-4.148.384-5.216a5.087 5.087 0 00-1.973-.866c-.513-.101-1-.178-1.538-.28 0-.89.026-2.162.026-3.155h-1.923c0 .967-.026 2.214-.026 3.08h-1.512c0-.892 0-2.113.026-3.08H48.88c0 1.018-.026 2.24-.026 3.13-1.307 0-2.563-.025-3.845-.025 0 .687 0 1.348-.025 2.01h.769c.23 0 .487 0 .717.025.667.051 1 .408 1 1.07l-.077 8.117c0 .585-.256.84-.846.84h-1.281a70.16 70.16 0 01-.41 2.265c1.281.025 2.563.025 3.844.05 0 .968 0 2.214-.025 3.232h1.897c0-1.018.025-2.214.025-3.18.538.025 1.026.025 1.513.05 0 .967-.026 2.138-.026 3.13h1.897c0-1.018.025-2.214.025-3.155.077 0 .129-.026.154-.026.897-.152 1.846-.229 2.717-.432 1.154-.28 2.076-.942 2.538-2.087.436-.916.513-1.832.384-2.8zm-9.049-6.896c1.18 0 2.333-.102 3.435.381.718.306 1.076.89 1.025 1.603-.051.738-.487 1.273-1.23 1.527-1.051.331-2.128.331-3.256.28 0-1.272.026-2.494.026-3.791zm4.153 9.44c-1.051.459-2.18.459-3.282.484-.307 0-.615-.025-.974-.025.026-1.4.026-2.774.052-4.174 1.435 0 2.87-.102 4.23.484.691.305 1.101.84 1.101 1.628 0 .79-.41 1.298-1.127 1.604z" fill="#575757"/><rect x="32.5" y=".5" width="39" height="39" rx="19.5" stroke="#575757"/><rect x="64.5" y=".5" width="39" height="39" rx="19.5" fill="#fff"/><path d="M84 25.074V30l6.429-8.572L84 25.075zM90.429 20L84 10v7.267L90.429 20zM84 17.857v5.715l6.429-3.205L84 17.857zM76.856 20l6.428-10v7.267L76.856 20zM83.284 17.857v5.715l-6.428-3.205 6.428-2.51zM83.284 25.074V30l-6.428-8.571 6.428 3.645z" fill="#575757"/><rect x="64.5" y=".5" width="39" height="39" rx="19.5" stroke="#575757"/><rect x="96.5" y=".5" width="39" height="39" rx="19.5" fill="#fff"/><path d="M115.003 25.214l1.11-4.198 2.641-.972.666-2.474-.022-.044-2.597.95 1.864-7.047h-5.327l-2.463 9.19-2.042.75-.688 2.541 2.064-.75-1.465 5.411h14.205l.91-3.357h-8.856z" fill="#575757"/><rect x="96.5" y=".5" width="39" height="39" rx="19.5" stroke="#575757"/><rect x="128.5" y=".5" width="39" height="39" rx="19.5" fill="#fff"/><path fill-rule="evenodd" clip-rule="evenodd" d="M138 11l8.357 21L158 17.832l-4.122-3.914L138 11zm2.963 1.67l11.444 2.104-4.442 3.697-7.002-5.8zm-.794.782l7.298 6.045-1.141 9.427-6.157-15.472zm13.453 1.752l2.429 2.306-6.643 1.202 4.214-3.508zm-5.099 4.793l7.356-1.33-8.437 10.267 1.081-8.937z" fill="#575757"/><rect x="128.5" y=".5" width="39" height="39" rx="19.5" stroke="#575757"/><rect x="160.5" y=".5" width="39" height="39" rx="19.5" fill="#fff"/><path d="M187.852 13.74c0 2.096-1.533 4.117-3.747 4.391-.39.05-.803.05-1.192.125-1.29.275-1.825 1.847-.974 2.87.341.424.828.574 1.363.624.535.05 1.119.1 1.63.274 1.654.574 2.603 1.797 2.871 3.544a4.478 4.478 0 01-3.358 5.04c-2.36.55-4.817-1.098-5.255-3.543-.195-1.073.024-2.046.487-2.995.194-.399.365-.798.34-1.247-.024-.724-.486-1.348-1.216-1.597-.609-.225-1.338 0-1.752.549-.268.35-.511.748-.779 1.098-1.143 1.397-2.603 1.871-4.306 1.472-1.703-.4-2.822-1.522-3.26-3.269-.609-2.495.924-4.99 3.357-5.465 1.801-.35 3.285.25 4.38 1.772.243.324.438.674.705.973.9.923 2.506.474 2.823-.798.121-.5.024-.974-.195-1.398-.414-.798-.706-1.647-.681-2.595.073-2.146 1.727-3.968 3.771-4.242 2.311-.3 4.452 1.247 4.89 3.643.049.225.073.5.098.774z" fill="#575757"/><rect x="160.5" y=".5" width="39" height="39" rx="19.5" stroke="#575757"/><rect x="192.5" y=".5" width="39" height="39" rx="19.5" fill="#fff"/><path d="M212.003 13.085l5.771 3.445v6.918l-5.755 3.467-5.772-3.44v-6.917l5.756-3.473zm0-5.085l-2.118 1.277-5.767 3.472L202 14.026v11.997l2.118 1.266 5.772 3.445L212.008 32l2.118-1.277 5.756-3.472L222 25.979V13.977l-2.118-1.266-5.772-3.445L211.992 8h.011z" fill="#575757"/><rect x="192.5" y=".5" width="39" height="39" rx="19.5" stroke="#575757"/></svg><svg fill="none" viewBox="0 0 164 12" id="cryptocurrency" xmlns="http://www.w3.org/2000/svg"><path d="M.205 11h3.049l.513-1.962H6.72L7.232 11h3.05l-3.22-9.864H3.425L.205 11zm5.01-7.513h.056l.916 3.507H4.3l.916-3.507zM11.17 11h6.768V8.703h-3.87V1.136H11.17V11zM19.031 11H25.8V8.703h-3.87V1.136h-2.898V11zM34.207 11.178c2.714 0 4.594-1.77 4.594-4.081V7.02h-2.776l-.006.076c-.096 1.039-.807 1.715-1.805 1.715-1.196 0-1.941-.998-1.941-2.754V6.05c0-1.73.745-2.728 1.934-2.728 1.073 0 1.716.732 1.798 1.71l.007.081h2.775v-.061c0-2.318-1.839-4.095-4.58-4.095-3.008 0-4.888 1.846-4.888 5.1v.006c0 3.254 1.86 5.114 4.888 5.114zM39.895 11h2.898V7.76h.95L45.302 11h3.24l-1.873-3.67c.957-.466 1.586-1.573 1.586-2.804v-.013c0-2.188-1.381-3.377-3.917-3.377h-4.444V11zm2.898-5.284v-2.44h1.21c.766 0 1.299.498 1.299 1.216v.014c0 .724-.52 1.21-1.3 1.21h-1.209zM51.577 11h2.899V7.876l3.37-6.74h-3.063l-1.73 3.999H53l-1.73-4h-3.062l3.37 6.741V11zM58.734 11h2.899V8.307h1.51c2.311 0 3.767-1.374 3.767-3.562v-.014c0-2.187-1.456-3.595-3.766-3.595h-4.41V11zm3.72-7.684c.956 0 1.53.472 1.53 1.415v.014c0 .943-.574 1.422-1.53 1.422h-.821v-2.85h.82zM70.157 11h2.899V3.433h2.597V1.136H67.56v2.297h2.597V11zM80.89 11.178c3.069 0 4.976-1.962 4.976-5.107v-.013c0-3.138-1.914-5.1-4.976-5.1-3.042 0-4.963 1.955-4.963 5.1v.013c0 3.152 1.907 5.107 4.963 5.107zm0-2.366c-1.217 0-2.01-1.039-2.01-2.74v-.014c0-1.703.8-2.735 2.01-2.735 1.23 0 2.023 1.04 2.023 2.735v.013c0 1.682-.772 2.742-2.023 2.742zM91.643 11.178c2.713 0 4.593-1.77 4.593-4.081V7.02h-2.775l-.007.076c-.096 1.039-.806 1.715-1.805 1.715-1.196 0-1.941-.998-1.941-2.754V6.05c0-1.73.745-2.728 1.935-2.728 1.073 0 1.715.732 1.797 1.71l.007.081h2.776v-.061c0-2.318-1.84-4.095-4.58-4.095-3.008 0-4.888 1.846-4.888 5.1v.006c0 3.254 1.86 5.114 4.888 5.114zM101.671 11.178c2.639 0 4.354-1.456 4.354-3.692v-6.35h-2.898v6.063c0 1.04-.506 1.614-1.449 1.614-.944 0-1.449-.575-1.449-1.614V1.136H97.33v6.35c0 2.25 1.736 3.692 4.341 3.692zM107.393 11h2.898V7.76h.95L112.8 11h3.24l-1.873-3.67c.957-.466 1.586-1.573 1.586-2.804v-.013c0-2.188-1.381-3.377-3.917-3.377h-4.443V11zm2.898-5.284v-2.44h1.21c.766 0 1.299.498 1.299 1.216v.014c0 .724-.52 1.21-1.299 1.21h-1.21zM116.936 11h2.898V7.76h.95l1.559 3.24h3.24l-1.873-3.67c.957-.466 1.586-1.573 1.586-2.804v-.013c0-2.188-1.381-3.377-3.917-3.377h-4.443V11zm2.898-5.284v-2.44h1.21c.766 0 1.299.498 1.299 1.216v.014c0 .724-.52 1.21-1.299 1.21h-1.21zM126.479 11h6.959V8.703h-4.061V7.138h3.808V5.005h-3.808V3.433h4.061V1.136h-6.959V11zM134.791 11h2.898V5.873h.048L141.251 11h2.386V1.136h-2.899V6.18h-.048l-3.486-5.045h-2.413V11zM149.652 11.178c2.714 0 4.594-1.77 4.594-4.081V7.02h-2.775l-.007.076c-.096 1.039-.807 1.715-1.805 1.715-1.196 0-1.941-.998-1.941-2.754V6.05c0-1.73.745-2.728 1.934-2.728 1.074 0 1.716.732 1.798 1.71l.007.081h2.775v-.061c0-2.318-1.838-4.095-4.58-4.095-3.007 0-4.887 1.846-4.887 5.1v.006c0 3.254 1.859 5.114 4.887 5.114zM157.685 11h2.898V7.876l3.37-6.74h-3.062l-1.73 3.999h-.055l-1.729-4h-3.063l3.371 6.741V11z" fill="#fff"/></svg><svg fill="none" viewBox="0 0 36 36" id="facebook_default" xmlns="http://www.w3.org/2000/svg"><path fill-rule="evenodd" clip-rule="evenodd" d="M18 34c-3.794 0-6.48-.003-8.55-.227-2.033-.22-3.236-.635-4.152-1.3a8 8 0 01-1.77-1.77c-.666-.917-1.08-2.12-1.3-4.153C2.002 24.48 2 21.794 2 18c0-3.794.003-6.48.227-8.55.22-2.033.635-3.236 1.3-4.152a8 8 0 011.77-1.77c.917-.666 2.12-1.08 4.153-1.3C11.52 2.002 14.206 2 18 2c3.794 0 6.48.003 8.55.227 2.033.22 3.236.635 4.152 1.3a8 8 0 011.77 1.77c.666.917 1.08 2.12 1.3 4.153.225 2.07.228 4.756.228 8.55 0 3.794-.003 6.48-.227 8.55-.22 2.033-.635 3.236-1.3 4.152a8 8 0 01-1.77 1.77c-.917.666-2.12 1.08-4.153 1.3-2.07.225-4.756.228-8.55.228zM0 18C0 10.5 0 6.75 1.91 4.122A10 10 0 014.122 1.91C6.751 0 10.501 0 18 0c7.5 0 11.25 0 13.878 1.91a10.001 10.001 0 012.212 2.212C36 6.751 36 10.501 36 18c0 7.5 0 11.25-1.91 13.878a10.002 10.002 0 01-2.212 2.212C29.249 36 25.5 36 18 36S6.75 36 4.122 34.09a10.001 10.001 0 01-2.212-2.212C0 29.249 0 25.5 0 18zm15.905 1.502V28h3.56v-8.498h2.789l.443-3.377h-3.231v-2.327c0-.976.276-1.644 1.708-1.644H23v-3.02A24.892 24.892 0 0020.34 9c-2.632 0-4.435 1.573-4.435 4.464v2.661H13v3.377h2.905z" fill="#000"/></svg><svg fill="none" viewBox="0 0 36 36" id="facebook_hover" xmlns="http://www.w3.org/2000/svg"><path d="M0 18C0 10.5 0 6.75 1.91 4.122A10 10 0 014.122 1.91C6.751 0 10.501 0 18 0c7.5 0 11.25 0 13.878 1.91a10.001 10.001 0 012.212 2.212C36 6.751 36 10.501 36 18c0 7.5 0 11.25-1.91 13.878a10.002 10.002 0 01-2.212 2.212C29.249 36 25.5 36 18 36S6.75 36 4.122 34.09a10.001 10.001 0 01-2.212-2.212C0 29.249 0 25.5 0 18z" fill="#000"/><path d="M15.905 28v-8.498H13v-3.377h2.905v-2.66c0-2.892 1.803-4.465 4.436-4.465 1.261 0 2.345.093 2.659.134v3.02h-1.826c-1.432 0-1.708.668-1.708 1.644v2.327h3.231l-.443 3.377h-2.788V28" fill="#fff"/></svg><svg fill="none" viewBox="0 0 40 40" id="logo" xmlns="http://www.w3.org/2000/svg"><g clip-path="url(#jclip0_112_724)"><path d="M3.655 3.656l.001-.001C5.107 2.2 6.962 1.444 9.59 1.058c2.65-.39 6.003-.391 10.406-.391 4.404 0 7.756.001 10.408.39 2.629.385 4.486 1.14 5.94 2.591C37.8 5.103 38.557 6.96 38.943 9.59c.39 2.652.391 6.004.391 10.407 0 4.404-.001 7.756-.39 10.408-.387 2.628-1.144 4.486-2.598 5.94-1.455 1.455-3.314 2.212-5.944 2.598-2.652.39-6.005.391-10.405.391-4.4 0-7.752-.001-10.403-.39-2.63-.387-4.486-1.144-5.937-2.598h0C2.2 34.89 1.443 33.03 1.057 30.4c-.39-2.652-.391-6.005-.391-10.405 0-4.4.001-7.752.39-10.403.387-2.63 1.144-4.486 2.598-5.937z" stroke="#000" stroke-width="2"/><path d="M19.138 32.854A7.508 7.508 0 0116.3 28.22h-4.633V8.195c2.496 1.24 4.274 3.987 4.49 6.825l.7 5.62-.341-.053c-.754 0-1.401.7-1.401 1.4 0 .648.503 1.204 1.15 1.348l.843.197c1.401-2.64 2.192-5.226 2.192-7.776 0-2.299-.306-4.58-.342-6.915 0-1.041.396-1.993 1.042-2.73.647.755 1.042 1.689 1.042 2.73 0 2.335-.342 4.634-.342 6.915 0 2.532.79 5.136 2.192 7.776l.844-.197c.646-.144 1.15-.7 1.15-1.347 0-.7-.647-1.4-1.402-1.4l-.341.053.7-5.621c.342-2.838 1.994-5.586 4.49-6.825V28.22H23.7c-.341 1.886-1.347 3.592-2.838 4.634-.341.251-.646.556-.844.952-.233-.414-.539-.701-.88-.952zm-5.28-11.549c.197-.754.754-1.4 1.437-1.796l-.557-4.633a7.38 7.38 0 00-1.688-3.79v10.202h.808v.017zm2.352 5.514c0-.7.108-1.347.252-1.993l-.647-.144c-.951-.305-1.688-1.042-1.94-1.994h-.79v4.131h3.125zm3.072 0c0-.844-.647-1.598-1.491-1.688-.144.539-.251 1.096-.251 1.688h1.742zm0 1.401h-1.545c.252 1.096.79 2.083 1.545 2.945V28.22zm2.19-4.328c-.592-1.096-1.149-2.245-1.49-3.43-.341 1.203-.898 2.334-1.49 3.43.592.143 1.095.538 1.49.988.395-.45.898-.845 1.49-.988zm.953 2.927c0-.592-.108-1.15-.252-1.688a1.72 1.72 0 00-1.49 1.688h1.742zm-.198 1.401h-1.544v2.945c.754-.862 1.293-1.85 1.544-2.945zm4.688-1.4v-4.132h-.79c-.252.952-.988 1.689-1.94 1.994l-.647.144c.144.646.252 1.293.252 1.993h3.125zm0-5.515v-10.2c-.898 1.041-1.545 2.334-1.689 3.789l-.556 4.633c.7.396 1.239 1.042 1.436 1.796h.809v-.018z" fill="#000"/></g><defs><clipPath id="jclip0_112_724"><path fill="#fff" d="M0 0h40v40H0z"/></clipPath></defs></svg><svg fill="none" viewBox="0 0 94 14" id="mono" xmlns="http://www.w3.org/2000/svg"><path fill-rule="evenodd" clip-rule="evenodd" d="M14.63 13.415V6.58c0-1.94-1.038-2.86-2.78-2.86-1.45 0-2.704.862-3.253 1.724-.352-1.078-1.234-1.724-2.624-1.724-1.45 0-2.704.901-3.095 1.47V3.953H.39v9.461h2.488V7.05c.372-.529 1.097-1.117 1.959-1.117 1.018 0 1.41.627 1.41 1.509v5.974h2.507V7.03c.353-.509 1.078-1.097 1.959-1.097 1.019 0 1.41.627 1.41 1.509v5.974h2.508zm6.837.235c-3.115 0-4.995-2.272-4.995-4.975 0-2.684 1.88-4.956 4.995-4.956 3.134 0 5.014 2.272 5.014 4.956 0 2.703-1.88 4.975-5.014 4.975zm0-2.213c1.547 0 2.429-1.273 2.429-2.762 0-1.47-.882-2.743-2.43-2.743-1.547 0-2.409 1.274-2.409 2.743 0 1.489.862 2.762 2.41 2.762zm15.73 1.978v-6.68c0-1.84-1-3.016-3.076-3.016-1.548 0-2.703.744-3.31 1.47V3.953h-2.488v9.461h2.487V7.05c.412-.568 1.176-1.117 2.155-1.117 1.058 0 1.743.451 1.743 1.763v5.72h2.488zm6.855.235c-3.114 0-4.995-2.272-4.995-4.975 0-2.684 1.88-4.956 4.995-4.956 3.134 0 5.015 2.272 5.015 4.956 0 2.703-1.88 4.975-5.015 4.975zm0-2.213c1.547 0 2.429-1.273 2.429-2.762 0-1.47-.882-2.743-2.429-2.743-1.547 0-2.41 1.274-2.41 2.743 0 1.489.862 2.762 2.41 2.762zm9.343-1.058c.412.607 1.332 1.058 2.136 1.058 1.45 0 2.409-1.097 2.409-2.743 0-1.645-.96-2.762-2.41-2.762-.803 0-1.723.47-2.135 1.097v3.35zm0 3.036h-2.487V.35h2.487v4.819c.745-.96 1.803-1.45 2.92-1.45 2.409 0 4.191 1.88 4.191 4.975 0 3.154-1.802 4.956-4.192 4.956-1.136 0-2.174-.51-2.919-1.45v1.215zm17.16 0h-2.488v-.98c-.646.765-1.763 1.215-2.997 1.215-1.508 0-3.29-1.018-3.29-3.134 0-2.213 1.782-3.056 3.29-3.056 1.254 0 2.37.412 2.997 1.156V7.343c0-.96-.823-1.587-2.076-1.587-1.019 0-1.96.372-2.762 1.117l-.94-1.665c1.155-1.019 2.644-1.489 4.133-1.489 2.154 0 4.133.862 4.133 3.585v6.111zm-4.486-1.45c.803 0 1.587-.274 1.998-.822V9.968c-.411-.549-1.195-.823-1.998-.823-.98 0-1.782.51-1.782 1.43 0 .881.803 1.39 1.782 1.39zm15.827 1.45v-6.68c0-1.84-.999-3.016-3.075-3.016-1.547 0-2.703.744-3.31 1.47V3.953h-2.488v9.461h2.488V7.05c.41-.568 1.175-1.117 2.154-1.117 1.058 0 1.744.451 1.744 1.763v5.72h2.487zm11.714 0l-3.859-5.171 3.742-4.29h-3.056l-3.585 4.212V.35h-2.488v13.065h2.488v-2.429l1.136-1.214 2.508 3.643h3.114z" fill="#fff"/></svg><svg fill="none" viewBox="0 0 60 17" id="paypal" xmlns="http://www.w3.org/2000/svg"><path fill-rule="evenodd" clip-rule="evenodd" d="M54.901 13.163L56.806 1.04a.388.388 0 01.382-.327h2.145c.237 0 .419.213.381.447l-1.879 11.903a.644.644 0 01-.637.545h-1.915a.386.386 0 01-.382-.446zM2.558.715H7.2c1.553 0 2.724.41 3.383 1.185.601.706.8 1.714.592 2.997-.46 2.932-2.225 4.412-5.283 4.412h-1.47a.644.644 0 00-.636.545l-.507 3.21a.645.645 0 01-.637.545H.426a.386.386 0 01-.383-.446L1.92 1.259a.645.645 0 01.638-.544zm2.42 6.013c1.23 0 2.503 0 2.757-1.666.093-.585.019-1.008-.225-1.294-.409-.477-1.2-.477-2.038-.477h-.32a.387.387 0 00-.383.326l-.491 3.11h.7zm13.875-1.72h2.223c.237 0 .418.213.38.447l-1.201 7.608a.645.645 0 01-.637.546h-2.003a.387.387 0 01-.381-.448l.099-.618s-1.098 1.273-3.077 1.273c-1.153 0-2.122-.333-2.8-1.131-.738-.868-1.04-2.113-.828-3.415.409-2.61 2.507-4.47 4.963-4.47 1.071 0 2.144.233 2.626.931l.155.226.099-.622a.387.387 0 01.382-.326zm-3.384 6.45c1.286 0 2.294-.853 2.508-2.123.097-.615-.037-1.173-.376-1.573-.338-.395-.851-.605-1.482-.605-1.266 0-2.291.88-2.491 2.14-.105.617.02 1.172.348 1.561.332.393.848.6 1.493.6zm17.446-6.45H30.68a.647.647 0 00-.534.284L27.066 9.83 25.76 5.469a.647.647 0 00-.62-.46h-2.194a.387.387 0 00-.368.511l2.46 7.221-2.312 3.266a.387.387 0 00.315.61h2.231c.212 0 .41-.103.53-.276l7.43-10.725a.387.387 0 00-.317-.607zM35.668.716h4.642c1.554 0 2.723.41 3.383 1.185.6.706.8 1.714.592 2.997-.461 2.932-2.225 4.412-5.284 4.412h-1.469a.644.644 0 00-.636.545l-.533 3.374a.451.451 0 01-.446.381h-2.382a.386.386 0 01-.382-.446l1.878-11.904a.645.645 0 01.637-.544zm2.42 6.013c1.232 0 2.505 0 2.758-1.666.093-.585.019-1.008-.225-1.294-.408-.477-1.2-.477-2.038-.477h-.32a.386.386 0 00-.382.326l-.492 3.11h.7zm16.098-1.72h-2.222a.385.385 0 00-.381.327l-.099.622-.156-.226c-.481-.698-1.554-.931-2.625-.931-2.456 0-4.553 1.86-4.962 4.47-.212 1.302.089 2.547.827 3.415.679.798 1.647 1.13 2.8 1.13 1.98 0 3.077-1.272 3.077-1.272l-.1.618a.387.387 0 00.384.448h2.001c.317 0 .588-.231.637-.546l1.202-7.608a.388.388 0 00-.383-.446zm-3.099 4.327c-.213 1.27-1.222 2.123-2.508 2.123-.644 0-1.161-.207-1.492-.6-.329-.39-.453-.944-.35-1.562.202-1.259 1.226-2.14 2.492-2.14.63 0 1.144.21 1.482.606.34.4.475.958.376 1.573z" fill="#fff"/></svg><svg fill="none" viewBox="0 0 102 18" id="privatbank" xmlns="http://www.w3.org/2000/svg"><path fill-rule="evenodd" clip-rule="evenodd" d="M12.132 12.16V3.536H3.508V4.71c4.265.506 6.945 3.185 7.451 7.45h1.173zM.468 7.652V.497h14.703V15.2H8.017v-1.52c0-3.999-2.028-6.027-6.029-6.027H.468zm16.66 7.523h2.49V8.078h3.987v7.097h2.49V6.367h-8.968v8.808zm10.182 2.328v-8.72h2.159l-.015.768h.045c.876-.919 1.933-1.007 2.477-1.007 2.159 0 3.487 1.334 3.487 3.447 0 2.026-1.343 3.423-3.533 3.423-.302 0-1.555-.062-2.324-.893v2.982H27.31zm3.987-7.675c-.695 0-1.798.352-1.798 2.138 0 1.108.454 2.165 1.798 2.165 1.313 0 1.78-1.057 1.78-2.165 0-1.786-1.101-2.138-1.78-2.138zm9.858 4.58c-.845.792-1.66 1.006-2.566 1.006-2.476 0-2.567-1.862-2.567-2.63V8.782h2.295v3.7c0 1.271.439 1.649 1.284 1.649 1.449 0 1.554-1.296 1.554-1.762V8.782h2.296v6.393h-2.296v-.767zm6.987-1.926h-1.404v1.41h1.432c1.133 0 1.285-.378 1.285-.655 0-.428-.227-.755-1.313-.755zm-3.7 2.693V8.782h4.575c.71 0 2.522 0 2.522 1.549 0 .867-.725 1.383-1.556 1.497v.038c1.268.226 1.827.666 1.827 1.673 0 1.309-1.147 1.636-2.808 1.636h-4.56zm3.533-5.109h-1.237v1.22h1.192c.377 0 1.252-.012 1.252-.591 0-.528-.558-.629-1.207-.629zm6.738.78c0-.943.996-1.018 1.404-1.018.257 0 1.208.012 1.239.843v.176c-.035.486-.405.521-1.352.611-.278.026-.605.057-.988.106-1.39.188-2.855.54-2.855 2 0 .53.227 1.85 2.673 1.85.937 0 1.964-.24 2.567-.868h.046l.196.629h2.415v-.113c-.438-.088-.468-.516-.453-1.208l.045-2.92c.016-.741-.06-2.39-3.517-2.39-.83 0-3.503.075-3.609 2.303h2.189zm2.658 1.687c0 1.283-1.118 1.598-1.676 1.598-.423 0-1.178-.139-1.178-.742 0-.718.86-.856 1.344-.92l.34-.046c.545-.074.579-.079 1.17-.293v.403zm2.537-3.75v1.284h2.536v5.107h2.295v-5.107h2.536V8.781h-7.367zm10.294-.705h5.722v-1.71H67.71v8.807h5.043c2.447 0 4.016-.855 4.016-2.655 0-2.818-3.14-2.882-4.016-2.882h-2.55v-1.56zm0 3.272h2.068c.606 0 1.813.063 1.813 1.12 0 .83-.877.993-1.857.993h-2.024V11.35zm10.962-1.522c-.407 0-1.404.075-1.404 1.019h-2.19c.106-2.228 2.779-2.303 3.608-2.303 3.458 0 3.534 1.649 3.52 2.39l-.046 2.92c-.016.692.016 1.12.452 1.208v.113H82.69l-.197-.629h-.045c-.604.629-1.63.868-2.567.868-2.446 0-2.672-1.32-2.672-1.85 0-1.46 1.465-1.812 2.853-2 .383-.049.71-.08.988-.106.949-.09 1.318-.125 1.354-.611v-.176c-.03-.83-.983-.843-1.24-.843zm-.423 4.303c.558 0 1.676-.315 1.676-1.598v-.403c-.591.214-.624.219-1.17.293l-.34.047c-.483.063-1.343.201-1.343.919 0 .603.755.742 1.177.742zm7.24 1.043h-2.295V8.782h2.295v2.404h2.763V8.782h2.296v6.393h-2.296v-2.706h-2.763v2.706zm13.402-6.392h-2.55L96.37 11.35h-.045V8.782h-2.294v6.393h2.294v-2.793h.045l2.476 2.793h2.688l-3.307-3.398 3.155-2.995zM.465 15.197h5.749V9.45H.465v5.748z" fill="#fff"/></svg><svg fill="none" viewBox="0 0 36 36" id="telegram_default" xmlns="http://www.w3.org/2000/svg"><path fill-rule="evenodd" clip-rule="evenodd" d="M18 34c-3.794 0-6.48-.003-8.55-.227-2.033-.22-3.236-.635-4.152-1.3a8 8 0 01-1.77-1.77c-.666-.917-1.08-2.12-1.3-4.153C2.002 24.48 2 21.794 2 18c0-3.794.003-6.48.227-8.55.22-2.033.635-3.236 1.3-4.152a8 8 0 011.77-1.77c.917-.666 2.12-1.08 4.153-1.3C11.52 2.002 14.206 2 18 2c3.794 0 6.48.003 8.55.227 2.033.22 3.236.635 4.152 1.3a8 8 0 011.77 1.77c.666.917 1.08 2.12 1.3 4.153.225 2.07.228 4.756.228 8.55 0 3.794-.003 6.48-.227 8.55-.22 2.033-.635 3.236-1.3 4.152a8 8 0 01-1.77 1.77c-.917.666-2.12 1.08-4.153 1.3-2.07.225-4.756.228-8.55.228zM0 18C0 10.5 0 6.75 1.91 4.122A10 10 0 014.122 1.91C6.751 0 10.501 0 18 0c7.5 0 11.25 0 13.878 1.91a10.001 10.001 0 012.212 2.212C36 6.751 36 10.501 36 18c0 7.5 0 11.25-1.91 13.878a10.002 10.002 0 01-2.212 2.212C29.249 36 25.5 36 18 36S6.75 36 4.122 34.09a10.001 10.001 0 01-2.212-2.212C0 29.249 0 25.5 0 18zm23.925 6.974l3.018-14.426c.268-1.272-.45-1.77-1.272-1.457L7.928 16.019c-1.21.48-1.192 1.167-.205 1.48l4.536 1.438 10.536-6.724c.496-.335.947-.15.576.185l-8.523 7.806-.33 4.747c.473 0 .678-.208.924-.457l2.219-2.163 4.599 3.435c.843.48 1.437.226 1.665-.792z" fill="#000"/></svg><svg fill="none" viewBox="0 0 36 36" id="telegram_hover" xmlns="http://www.w3.org/2000/svg"><path d="M0 18C0 10.5 0 6.75 1.91 4.122A10 10 0 014.122 1.91C6.751 0 10.501 0 18 0c7.5 0 11.25 0 13.878 1.91a10.001 10.001 0 012.212 2.212C36 6.751 36 10.501 36 18c0 7.5 0 11.25-1.91 13.878a10.002 10.002 0 01-2.212 2.212C29.249 36 25.5 36 18 36S6.75 36 4.122 34.09a10.001 10.001 0 01-2.212-2.212C0 29.249 0 25.5 0 18z" fill="#000"/><path d="M26.943 10.548l-3.018 14.426c-.228 1.018-.822 1.271-1.665.792l-4.6-3.435-2.218 2.163c-.246.249-.45.457-.924.457l.33-4.747 8.523-7.806c.37-.334-.08-.52-.576-.185L12.26 18.937l-4.536-1.439c-.987-.312-1.005-1 .205-1.48L25.67 9.091c.821-.313 1.54.185 1.272 1.457z" fill="#fff"/></svg><svg fill="none" viewBox="0 0 36 36" id="twitter_default" xmlns="http://www.w3.org/2000/svg"><path fill-rule="evenodd" clip-rule="evenodd" d="M18 34c-3.794 0-6.48-.003-8.55-.227-2.033-.22-3.236-.635-4.152-1.3a8 8 0 01-1.77-1.77c-.666-.917-1.08-2.12-1.3-4.153C2.002 24.48 2 21.794 2 18c0-3.794.003-6.48.227-8.55.22-2.033.635-3.236 1.3-4.152a8 8 0 011.77-1.77c.917-.666 2.12-1.08 4.153-1.3C11.52 2.002 14.206 2 18 2c3.794 0 6.48.003 8.55.227 2.033.22 3.236.635 4.152 1.3a8 8 0 011.77 1.77c.666.917 1.08 2.12 1.3 4.153.225 2.07.228 4.756.228 8.55 0 3.794-.003 6.48-.227 8.55-.22 2.033-.635 3.236-1.3 4.152a8 8 0 01-1.77 1.77c-.917.666-2.12 1.08-4.153 1.3-2.07.225-4.756.228-8.55.228zM0 18C0 10.5 0 6.75 1.91 4.122A10 10 0 014.122 1.91C6.751 0 10.501 0 18 0c7.5 0 11.25 0 13.878 1.91a10.001 10.001 0 012.212 2.212C36 6.751 36 10.501 36 18c0 7.5 0 11.25-1.91 13.878a10.002 10.002 0 01-2.212 2.212C29.249 36 25.5 36 18 36S6.75 36 4.122 34.09a10.001 10.001 0 01-2.212-2.212C0 29.249 0 25.5 0 18zm25.161-3.77c0-.164 0-.328-.011-.492A8.049 8.049 0 0027 11.781a7.25 7.25 0 01-2.124.586 3.759 3.759 0 001.621-2.086 7.153 7.153 0 01-2.34.914A3.637 3.637 0 0021.46 10c-2.045 0-3.69 1.7-3.69 3.785 0 .293.035.586.092.867-3.061-.164-5.79-1.664-7.607-3.96a3.832 3.832 0 00-.502 1.91 3.81 3.81 0 001.644 3.152 3.644 3.644 0 01-1.667-.48v.046c0 1.84 1.268 3.364 2.958 3.715-.308.082-.64.129-.97.129a4.54 4.54 0 01-.697-.059c.468 1.5 1.827 2.59 3.449 2.625a7.27 7.27 0 01-4.58 1.618c-.309 0-.594-.012-.891-.047A10.234 10.234 0 0014.665 25c6.784 0 10.496-5.766 10.496-10.77z" fill="#000"/></svg><svg fill="none" viewBox="0 0 36 36" id="twitter_hover" xmlns="http://www.w3.org/2000/svg"><path d="M0 18C0 10.5 0 6.75 1.91 4.122A10 10 0 014.122 1.91C6.751 0 10.501 0 18 0c7.5 0 11.25 0 13.878 1.91a10.001 10.001 0 012.212 2.212C36 6.751 36 10.501 36 18c0 7.5 0 11.25-1.91 13.878a10.002 10.002 0 01-2.212 2.212C29.249 36 25.5 36 18 36S6.75 36 4.122 34.09a10.001 10.001 0 01-2.212-2.212C0 29.249 0 25.5 0 18z" fill="#000"/><path d="M25.15 13.738c.011.164.011.328.011.492 0 5.004-3.712 10.77-10.496 10.77-2.09 0-4.032-.621-5.665-1.7.297.036.582.048.89.048a7.27 7.27 0 004.58-1.617c-1.621-.036-2.98-1.126-3.448-2.626.228.036.456.059.696.059.332 0 .663-.047.971-.129-1.69-.351-2.958-1.875-2.958-3.715v-.047a3.644 3.644 0 001.667.48 3.81 3.81 0 01-1.644-3.152c0-.703.183-1.347.502-1.91 1.816 2.297 4.546 3.797 7.607 3.961a4.379 4.379 0 01-.091-.867C17.772 11.7 19.416 10 21.46 10c1.062 0 2.021.457 2.695 1.195a7.153 7.153 0 002.341-.914 3.759 3.759 0 01-1.621 2.086A7.25 7.25 0 0027 11.781a8.049 8.049 0 01-1.85 1.957z" fill="#fff"/></svg></svg>