<svg width="40" height="40" viewBox="0 0 40 40" fill="none" xmlns="http://www.w3.org/2000/svg">
<g clip-path="url(#clip0_112_724)">
<path d="M3.65493 3.65601L3.65601 3.65493C5.10709 2.20053 6.96209 1.44359 9.59009 1.05761C12.2407 0.66832 15.593 0.666687 19.9964 0.666687C24.3998 0.666687 27.7522 0.668307 30.4038 1.05675C33.0327 1.44184 34.8898 2.19707 36.3446 3.64821C37.7994 5.10309 38.5564 6.96029 38.9424 9.58915C39.3318 12.2407 39.3334 15.593 39.3334 19.9964C39.3334 24.3998 39.3318 27.7521 38.9424 30.4036C38.5564 33.0325 37.7994 34.8897 36.3446 36.3446C34.8898 37.7994 33.0309 38.5564 30.401 38.9424C27.7485 39.3318 24.3962 39.3334 19.9964 39.3334C15.5966 39.3334 12.2443 39.3318 9.59275 38.9424C6.96369 38.5564 5.10699 37.7994 3.65601 36.3451L3.65547 36.3446C2.2007 34.8898 1.44363 33.0309 1.05763 30.401C0.668314 27.7485 0.666687 24.3962 0.666687 19.9964C0.666687 15.5966 0.668314 12.2443 1.05762 9.59275C1.44363 6.96369 2.20064 5.10699 3.65493 3.65601Z" stroke="black" stroke-width="2"/>
<path d="M19.138 32.8536C17.7012 31.7581 16.6416 30.1238 16.3003 28.22H11.6667V8.19482C14.1631 9.43408 15.9411 12.1819 16.1566 15.0196L16.8571 20.6409L16.5158 20.5871C15.7615 20.5871 15.115 21.2875 15.115 21.9879C15.115 22.6345 15.6178 23.1912 16.2644 23.3349L17.1085 23.5325C18.5094 20.8924 19.2996 18.3062 19.2996 15.7559C19.2996 13.4571 18.9943 11.1762 18.9584 8.84142C18.9584 7.79975 19.3535 6.84788 20 6.11151C20.6466 6.86582 21.0417 7.79975 21.0417 8.84142C21.0417 11.1762 20.7004 13.475 20.7004 15.7559C20.7004 18.2882 21.4907 20.8924 22.8916 23.5325L23.7357 23.3349C24.3822 23.1912 24.8851 22.6345 24.8851 21.9879C24.8851 21.2875 24.2386 20.5871 23.4842 20.5871L23.143 20.6409L23.8434 15.0196C24.1846 12.1819 25.837 9.43408 28.3334 8.19482V28.22H23.6998C23.3585 30.1058 22.3528 31.8119 20.8621 32.8536C20.5209 33.105 20.2156 33.4103 20.018 33.8055C19.7845 33.3924 19.4792 33.105 19.138 32.8536ZM13.8578 21.3055C14.0554 20.5512 14.6121 19.9046 15.2946 19.5095L14.7378 14.8759C14.5402 13.4391 13.9476 12.146 13.0496 11.0864V21.2875H13.8578V21.3055ZM16.2105 26.8191C16.2105 26.1187 16.3183 25.4721 16.462 24.8256L15.8154 24.6819C14.8636 24.3766 14.1272 23.6402 13.8758 22.6884H13.0855V26.8191H16.2105ZM19.2816 26.8191C19.2816 25.975 18.6351 25.2207 17.791 25.1309C17.6473 25.6697 17.5396 26.2265 17.5396 26.8191H19.2816ZM19.2816 28.22H17.7371C17.9886 29.3156 18.5273 30.3033 19.2816 31.1654V28.22ZM21.4728 23.8917C20.88 22.7962 20.3233 21.6467 19.9821 20.4613C19.6408 21.6647 19.0841 22.7962 18.4914 23.8917C19.0841 24.0354 19.587 24.4305 19.9821 24.8795C20.3772 24.4305 20.88 24.0354 21.4728 23.8917ZM22.4246 26.8191C22.4246 26.2265 22.3168 25.6697 22.1732 25.1309C21.329 25.2387 20.6825 25.975 20.6825 26.8191H22.4246ZM22.227 28.22H20.6825V31.1654C21.4368 30.3033 21.9756 29.3156 22.227 28.22ZM26.9146 26.8191V22.6884H26.1243C25.8729 23.6402 25.1365 24.3766 24.1846 24.6819L23.5381 24.8256C23.6818 25.4721 23.7896 26.1187 23.7896 26.8191H26.9146ZM26.9146 21.3055V11.1044C26.0166 12.146 25.37 13.4391 25.2263 14.8938L24.6696 19.5275C25.37 19.9226 25.9088 20.5692 26.1064 21.3234H26.9146V21.3055Z" fill="black"/>
</g>
<defs>
<clipPath id="clip0_112_724">
<rect width="40" height="40" fill="white"/>
</clipPath>
</defs>
</svg>
