<svg width="94" height="14" viewBox="0 0 94 14" fill="none" xmlns="http://www.w3.org/2000/svg">
<path fill-rule="evenodd" clip-rule="evenodd" d="M14.6306 13.4151V6.57888C14.6306 4.63966 13.5924 3.71901 11.8491 3.71901C10.3996 3.71901 9.14592 4.58089 8.59745 5.44277C8.24486 4.36542 7.3634 3.71901 5.97264 3.71901C4.52311 3.71901 3.26947 4.62007 2.87771 5.18812V3.95407H0.390015V13.4151H2.87771V7.049C3.24988 6.52012 3.97465 5.93247 4.83652 5.93247C5.85511 5.93247 6.24687 6.5593 6.24687 7.44076V13.4151H8.75415V7.02941C9.10674 6.52012 9.8315 5.93247 10.713 5.93247C11.7316 5.93247 12.1233 6.5593 12.1233 7.44076V13.4151H14.6306ZM21.4669 13.6502C18.3523 13.6502 16.4719 11.378 16.4719 8.67481C16.4719 5.99124 18.3523 3.71901 21.4669 3.71901C24.601 3.71901 26.4814 5.99124 26.4814 8.67481C26.4814 11.378 24.601 13.6502 21.4669 13.6502ZM21.4669 11.4367C23.0143 11.4367 23.8958 10.1635 23.8958 8.67481C23.8958 7.2057 23.0143 5.93247 21.4669 5.93247C19.9194 5.93247 19.0575 7.2057 19.0575 8.67481C19.0575 10.1635 19.9194 11.4367 21.4669 11.4367ZM37.1961 13.4151V6.73559C37.1961 4.8943 36.1972 3.71901 34.1208 3.71901C32.5733 3.71901 31.4176 4.46336 30.8104 5.18812V3.95407H28.3227V13.4151H30.8104V7.049C31.2218 6.48094 31.9857 5.93247 32.9651 5.93247C34.0229 5.93247 34.7085 6.383 34.7085 7.69541V13.4151H37.1961ZM44.052 13.6502C40.9375 13.6502 39.057 11.378 39.057 8.67481C39.057 5.99124 40.9375 3.71901 44.052 3.71901C47.1861 3.71901 49.0666 5.99124 49.0666 8.67481C49.0666 11.378 47.1861 13.6502 44.052 13.6502ZM44.052 11.4367C45.5995 11.4367 46.4809 10.1635 46.4809 8.67481C46.4809 7.2057 45.5995 5.93247 44.052 5.93247C42.5045 5.93247 41.6427 7.2057 41.6427 8.67481C41.6427 10.1635 42.5045 11.4367 44.052 11.4367ZM53.3955 10.379C53.8069 10.9862 54.7275 11.4367 55.5307 11.4367C56.9802 11.4367 57.94 10.3398 57.94 8.6944C57.94 7.049 56.9802 5.93247 55.5307 5.93247C54.7275 5.93247 53.8069 6.40259 53.3955 7.02941V10.379ZM53.3955 13.4151H50.9079V0.349854H53.3955V5.16854C54.1399 4.20872 55.1977 3.71901 56.3142 3.71901C58.7235 3.71901 60.506 5.59948 60.506 8.6944C60.506 11.8481 58.7039 13.6502 56.3142 13.6502C55.1781 13.6502 54.1399 13.1409 53.3955 12.2007V13.4151ZM70.5548 13.4151H68.0671V12.4357C67.4207 13.1997 66.3041 13.6502 65.0701 13.6502C63.5618 13.6502 61.7793 12.6316 61.7793 10.5161C61.7793 8.30264 63.5618 7.46035 65.0701 7.46035C66.3237 7.46035 67.4402 7.8717 68.0671 8.61605V7.34282C68.0671 6.383 67.2444 5.75618 65.9907 5.75618C64.9721 5.75618 64.0319 6.12836 63.2288 6.8727L62.2886 5.20771C63.4443 4.18913 64.933 3.71901 66.4217 3.71901C68.5764 3.71901 70.5548 4.58089 70.5548 7.30364V13.4151ZM66.0691 11.9656C66.8722 11.9656 67.6557 11.6914 68.0671 11.1429V9.96763C67.6557 9.41916 66.8722 9.14493 66.0691 9.14493C65.0897 9.14493 64.2866 9.65422 64.2866 10.5749C64.2866 11.4563 65.0897 11.9656 66.0691 11.9656ZM81.8963 13.4151V6.73559C81.8963 4.8943 80.8973 3.71901 78.821 3.71901C77.2735 3.71901 76.1178 4.46336 75.5106 5.18812V3.95407H73.0229V13.4151H75.5106V7.049C75.9219 6.48094 76.6859 5.93247 77.6653 5.93247C78.723 5.93247 79.4086 6.383 79.4086 7.69541V13.4151H81.8963ZM93.61 13.4151L89.7512 8.24388L93.4925 3.95407H90.4367L86.8521 8.16552V0.349854H84.3644V13.4151H86.8521V10.9862L87.9882 9.77175L90.4955 13.4151H93.61Z" fill="white"/>
</svg>
