<svg width="102" height="18" viewBox="0 0 102 18" fill="none" xmlns="http://www.w3.org/2000/svg">
<path fill-rule="evenodd" clip-rule="evenodd" d="M12.1321 12.1599V3.53606H3.5075V4.70952C7.77317 5.21586 10.453 7.89496 10.9593 12.1599H12.1321ZM0.46814 7.65216V0.49707H15.1714V15.1993H8.01689V13.6791C8.01689 9.68011 5.98857 7.65216 1.98828 7.65216H0.46814ZM17.1273 15.1746H19.6185V8.07807H23.6048V15.1746H26.0954V6.36707H17.1273V15.1746ZM27.3099 17.5029V8.78271H29.4689L29.4541 9.55095H29.4992C30.375 8.63222 31.4317 8.54413 31.9759 8.54413C34.1345 8.54413 35.4634 9.8778 35.4634 11.9915C35.4634 14.0172 34.1198 15.4144 31.9304 15.4144C31.6283 15.4144 30.375 15.3516 29.6056 14.5208V17.5029H27.3099ZM31.2965 9.8277C30.6018 9.8277 29.4992 10.1799 29.4992 11.9661C29.4992 13.0739 29.9527 14.1312 31.2965 14.1312C32.6101 14.1312 33.0779 13.0739 33.0779 11.9661C33.0779 10.1799 31.9759 9.8277 31.2965 9.8277ZM41.1552 14.4076C40.3101 15.1997 39.4958 15.414 38.589 15.414C36.1129 15.414 36.0219 13.5516 36.0219 12.7843V8.78235H38.317V12.4818C38.317 13.7531 38.756 14.1308 39.6008 14.1308C41.0495 14.1308 41.1552 12.8346 41.1552 12.369V8.78235H43.4513V15.1745H41.1552V14.4076ZM48.142 12.4818H46.7377V13.8915H48.1705C49.3034 13.8915 49.4549 13.5138 49.4549 13.2372C49.4549 12.8093 49.2283 12.4818 48.142 12.4818ZM44.4425 15.1745V8.78235H49.0172C49.7269 8.78235 51.5391 8.78235 51.5391 10.3306C51.5391 11.1985 50.8139 11.7145 49.9833 11.8278V11.8658C51.2509 12.092 51.8103 12.5323 51.8103 13.5389C51.8103 14.8475 50.6631 15.1745 49.0024 15.1745H44.4425ZM47.9748 10.0665H46.7377V11.2869H47.9297C48.307 11.2869 49.1824 11.2744 49.1824 10.695C49.1824 10.167 48.6243 10.0665 47.9748 10.0665ZM54.713 10.8466C54.713 9.90295 55.7094 9.8277 56.1174 9.8277C56.3743 9.8277 57.3248 9.84037 57.3558 10.6706V10.8466C57.3207 11.3333 56.9514 11.3683 56.0036 11.4581C55.7261 11.4844 55.3989 11.5154 55.016 11.5639C53.626 11.7525 52.1615 12.1045 52.1615 13.5646C52.1615 14.0932 52.3882 15.4144 54.8342 15.4144C55.7709 15.4144 56.7977 15.1749 57.4006 14.5461H57.4472L57.6427 15.1749H60.0582V15.062C59.6205 14.9737 59.5902 14.5461 59.6051 13.8539L59.6504 10.9344C59.6658 10.1926 59.5902 8.54413 56.1328 8.54413C55.3022 8.54413 52.6297 8.61937 52.524 10.8466H54.713ZM57.3707 12.5327C57.3707 13.8163 56.2532 14.1312 55.6953 14.1312C55.2717 14.1312 54.5169 13.9923 54.5169 13.3886C54.5169 12.6711 55.3772 12.5327 55.861 12.4697C55.9941 12.4509 56.1057 12.4358 56.2014 12.4227C56.7464 12.3487 56.7799 12.3442 57.3707 12.1298V12.5327ZM59.9076 8.78235V10.0665H62.4443V15.1745H64.7389V10.0665H67.2754V8.78235H59.9076ZM70.2024 8.07807H75.9244V6.36707H67.7103V15.1746H72.7532C75.1998 15.1746 76.7693 14.3196 76.7693 12.5197C76.7693 9.70171 73.6292 9.6384 72.7532 9.6384H70.2024V8.07807ZM70.2024 11.3498H72.2702C72.8756 11.3498 74.0825 11.4129 74.0825 12.4695C74.0825 13.3001 73.2064 13.4634 72.2256 13.4634H70.2024V11.3498ZM81.1635 9.8277C80.7568 9.8277 79.7599 9.90295 79.7599 10.8466H77.5703C77.6758 8.61937 80.349 8.54413 81.1784 8.54413C84.6364 8.54413 84.7122 10.1926 84.6971 10.9344L84.652 13.8539C84.6364 14.5461 84.6681 14.9737 85.1043 15.062V15.1749H82.6888L82.4921 14.5461H82.4473C81.8433 15.1749 80.8165 15.4144 79.8803 15.4144C77.4343 15.4144 77.2084 14.0932 77.2084 13.5646C77.2084 12.1045 78.6727 11.7525 80.0609 11.5639C80.4441 11.5154 80.7715 11.4844 81.0492 11.4581C81.998 11.3683 82.3672 11.3333 82.4027 10.8466V10.6706C82.3722 9.84037 81.4204 9.8277 81.1635 9.8277ZM80.7414 14.1312C81.2995 14.1312 82.417 13.8163 82.417 12.5327V12.1298C81.826 12.3442 81.7925 12.3487 81.2471 12.4227C81.1513 12.4358 81.0396 12.4509 80.9064 12.4697C80.4235 12.5327 79.5637 12.6711 79.5637 13.3886C79.5637 13.9923 80.3186 14.1312 80.7414 14.1312ZM87.981 15.1745H85.6858V8.78235H87.981V11.186H90.7443V8.78235H93.0395V15.1745H90.7443V12.4694H87.981V15.1745ZM101.383 8.78235H98.8324L96.3708 11.3497H96.3262V8.78235H94.0316V15.1745H96.3262V12.3815H96.3708L98.8466 15.1745H101.535L98.2283 11.7769L101.383 8.78235ZM0.46521 15.1973H6.21377V9.44879H0.46521V15.1973Z" fill="white"/>
</svg>
