<svg width="36" height="36" viewBox="0 0 36 36" fill="none" xmlns="http://www.w3.org/2000/svg">
<path fill-rule="evenodd" clip-rule="evenodd" d="M18 34C14.2057 34 11.5207 33.9973 9.44995 33.7729C7.41667 33.5526 6.21429 33.1381 5.29772 32.4721C4.61856 31.9787 4.0213 31.3814 3.52786 30.7023C2.86194 29.7857 2.44739 28.5833 2.22709 26.5501C2.00275 24.4793 2 21.7943 2 18C2 14.2057 2.00275 11.5207 2.22709 9.44995C2.44739 7.41667 2.86194 6.21429 3.52786 5.29772C4.0213 4.61856 4.61856 4.0213 5.29772 3.52786C6.21429 2.86194 7.41667 2.44739 9.44995 2.22709C11.5207 2.00275 14.2057 2 18 2C21.7943 2 24.4793 2.00275 26.5501 2.22709C28.5833 2.44739 29.7857 2.86194 30.7023 3.52786C31.3814 4.0213 31.9787 4.61856 32.4721 5.29772C33.1381 6.21429 33.5526 7.41667 33.7729 9.44995C33.9973 11.5207 34 14.2057 34 18C34 21.7943 33.9973 24.4793 33.7729 26.5501C33.5526 28.5833 33.1381 29.7857 32.4721 30.7023C31.9787 31.3814 31.3814 31.9787 30.7023 32.4721C29.7857 33.1381 28.5833 33.5526 26.5501 33.7729C24.4793 33.9973 21.7943 34 18 34ZM0 18C0 10.5005 0 6.7508 1.90983 4.12215C2.52663 3.2732 3.2732 2.52663 4.12215 1.90983C6.7508 0 10.5005 0 18 0C25.4995 0 29.2492 0 31.8779 1.90983C32.7268 2.52663 33.4734 3.2732 34.0902 4.12215C36 6.7508 36 10.5005 36 18C36 25.4995 36 29.2492 34.0902 31.8779C33.4734 32.7268 32.7268 33.4734 31.8779 34.0902C29.2492 36 25.4995 36 18 36C10.5005 36 6.7508 36 4.12215 34.0902C3.2732 33.4734 2.52663 32.7268 1.90983 31.8779C0 29.2492 0 25.4995 0 18ZM25.1612 14.2305C25.1612 14.0664 25.1612 13.9023 25.1498 13.7383C25.8693 13.1992 26.4975 12.5312 27 11.7813C26.3376 12.0742 25.618 12.2852 24.8756 12.3672C25.6409 11.8985 26.2233 11.1602 26.4975 10.2813C25.7893 10.7148 24.9898 11.0313 24.1561 11.1953C23.4822 10.457 22.5228 10 21.4607 10C19.4162 10 17.7716 11.6992 17.7716 13.7852C17.7716 14.0781 17.8058 14.3711 17.8629 14.6523C14.802 14.4882 12.0723 12.9883 10.2563 10.6914C9.9365 11.2539 9.75379 11.8984 9.75379 12.6015C9.75379 13.914 10.4048 15.0742 11.3984 15.7539C10.7932 15.7305 10.222 15.5547 9.73094 15.2734V15.3203C9.73094 17.1601 10.9987 18.6836 12.6891 19.0352C12.3807 19.1172 12.0495 19.164 11.7183 19.164C11.4784 19.164 11.25 19.1406 11.0216 19.1055C11.4898 20.6055 12.849 21.6953 14.4708 21.7305C13.2031 22.75 11.6155 23.3477 9.89086 23.3477C9.58247 23.3477 9.29697 23.3359 9 23.3008C10.6333 24.3789 12.5749 25 14.665 25C21.4493 25 25.1612 19.2344 25.1612 14.2305Z" fill="black"/>
</svg>
